<?xml version="1.0" encoding="UTF-8"?>
<!DOCTYPE svg PUBLIC "-//W3C//DTD SVG 1.1//EN" "http://www.w3.org/Graphics/SVG/1.1/DTD/svg11.dtd">
<svg xmlns="http://www.w3.org/2000/svg" version="1.1" width="729px" height="342px" style="shape-rendering:geometricPrecision; text-rendering:geometricPrecision; image-rendering:optimizeQuality; fill-rule:evenodd; clip-rule:evenodd" xmlns:xlink="http://www.w3.org/1999/xlink">
<g><path style="opacity:0.644" fill="#aa2790" d="M 714.5,36.5 C 713.279,35.9717 712.113,35.305 711,34.5C 710.601,34.7284 710.435,35.0618 710.5,35.5C 708.109,32.8213 705.942,29.8213 704,26.5C 701.92,24.8767 699.754,23.3767 697.5,22C 668.5,21.3333 639.5,21.3333 610.5,22C 604.728,24.1055 600.562,27.9389 598,33.5C 597.292,32.6195 596.458,31.9528 595.5,31.5C 598.602,24.4366 603.936,19.9366 611.5,18C 639.5,17.3333 667.5,17.3333 695.5,18C 704.95,20.9494 711.283,27.1161 714.5,36.5 Z"/></g>
<g><path style="opacity:1" fill="#af2395" d="M 279.5,37.5 C 277.468,36.9522 276.468,35.6188 276.5,33.5C 272.957,33.128 270.79,31.128 270,27.5C 268.333,26.1667 266.667,24.8333 265,23.5C 263.09,26.1638 263.923,27.8304 267.5,28.5C 268.833,29.5 268.833,30.5 267.5,31.5C 264.211,29.0224 260.544,27.3558 256.5,26.5C 254.891,27.8883 253.058,28.8883 251,29.5C 224.354,28.7171 197.52,28.2171 170.5,28C 168.899,27.7266 167.399,27.2266 166,26.5C 165.517,27.448 165.351,28.448 165.5,29.5C 164.5,29.5 163.5,29.5 162.5,29.5C 162.5,32.5 162.5,35.5 162.5,38.5C 161.391,38.4431 160.391,38.1098 159.5,37.5C 159.817,33.2984 159.483,29.2984 158.5,25.5C 158.055,22.6354 158.722,20.1354 160.5,18C 193.5,17.3333 226.5,17.3333 259.5,18C 269.284,21.2838 275.951,27.7838 279.5,37.5 Z"/></g>
<g><path style="opacity:1" fill="#b02296" d="M 404.5,18.5 C 404.423,19.7498 403.756,20.5831 402.5,21C 406.842,21.8101 410.176,23.9768 412.5,27.5C 411.518,28.1408 410.518,28.8075 409.5,29.5C 407.464,27.6554 405.13,27.1554 402.5,28C 403.696,28.6543 403.696,29.1543 402.5,29.5C 372.877,28.5081 343.211,28.1747 313.5,28.5C 313.462,35.0414 312.796,35.0414 311.5,28.5C 310.029,29.3805 309.196,30.7139 309,32.5C 308.244,28.6676 307.744,25.0009 307.5,21.5C 306.579,23.7765 305.913,26.1099 305.5,28.5C 304.674,32.9819 304.174,37.6486 304,42.5C 303.5,34.5069 303.334,26.5069 303.5,18.5C 337.069,17.1714 370.736,17.1714 404.5,18.5 Z"/></g>
<g><path style="opacity:1" fill="#ae2294" d="M 565.5,27.5 C 563.226,26.0484 561.726,26.715 561,29.5C 558.402,26.8561 555.735,26.8561 553,29.5C 551.527,29.0969 550.194,28.4303 549,27.5C 522.906,28.661 496.739,28.8277 470.5,28C 467.411,27.8525 464.578,27.0192 462,25.5C 458.846,27.3208 456.346,29.8208 454.5,33C 453.099,33.4101 451.766,33.9101 450.5,34.5C 453.776,26.0587 459.776,20.5587 468.5,18C 496.167,17.3333 523.833,17.3333 551.5,18C 557.733,19.0986 562.4,22.2652 565.5,27.5 Z"/></g>
<g><path style="opacity:1" fill="#ad2394" d="M 141.5,44.5 C 140.292,45.2341 138.959,45.5674 137.5,45.5C 137.453,42.4318 136.953,39.4318 136,36.5C 135.283,37.0442 134.783,37.7109 134.5,38.5C 130.5,37.8333 130.5,37.1667 134.5,36.5C 134.762,35.0222 134.429,33.6888 133.5,32.5C 131.799,29.9649 129.633,27.9649 127,26.5C 125.113,26.9686 123.613,27.9686 122.5,29.5C 121.252,28.9598 120.085,28.2931 119,27.5C 118.326,28.5784 117.326,29.2451 116,29.5C 89.8673,28.2196 63.8673,28.2196 38,29.5C 36.1348,29.2945 34.4681,28.6278 33,27.5C 31.3745,28.2887 29.8745,29.2887 28.5,30.5C 27.3954,28.3886 25.7288,27.0553 23.5,26.5C 27.0092,21.8364 31.6759,19.0031 37.5,18C 64.8333,17.3333 92.1667,17.3333 119.5,18C 129.868,20.6994 136.701,27.1994 140,37.5C 140.662,39.8127 141.162,42.146 141.5,44.5 Z"/></g>
<g><path style="opacity:1" fill="#ab2399" d="M 279.5,37.5 C 279.5,37.8333 279.5,38.1667 279.5,38.5C 278.498,40.0109 277.831,41.6776 277.5,43.5C 276.08,41.1137 275.08,38.447 274.5,35.5C 273.5,35.8333 272.833,36.5 272.5,37.5C 273.246,38.7362 273.579,40.0695 273.5,41.5C 237.846,42.4386 202.179,42.772 166.5,42.5C 166.649,41.448 166.483,40.448 166,39.5C 165.821,42.5535 165.321,45.5535 164.5,48.5C 163.833,45.0227 163.166,41.6893 162.5,38.5C 162.5,35.5 162.5,32.5 162.5,29.5C 163.5,29.5 164.5,29.5 165.5,29.5C 165.351,28.448 165.517,27.448 166,26.5C 167.399,27.2266 168.899,27.7266 170.5,28C 197.52,28.2171 224.354,28.7171 251,29.5C 253.058,28.8883 254.891,27.8883 256.5,26.5C 260.544,27.3558 264.211,29.0224 267.5,31.5C 268.833,30.5 268.833,29.5 267.5,28.5C 263.923,27.8304 263.09,26.1638 265,23.5C 266.667,24.8333 268.333,26.1667 270,27.5C 270.79,31.128 272.957,33.128 276.5,33.5C 276.468,35.6188 277.468,36.9522 279.5,37.5 Z"/></g>
<g><path style="opacity:1" fill="#ab2399" d="M 412.5,27.5 C 417.011,31.5221 419.678,36.5221 420.5,42.5C 401.178,41.8946 381.845,41.5613 362.5,41.5C 345.781,41.5074 329.281,42.1741 313,43.5C 312.626,42.5838 312.126,41.7504 311.5,41C 309.925,41.379 308.425,41.2123 307,40.5C 306.667,41.5 306.333,42.5 306,43.5C 305.501,38.5111 305.334,33.5111 305.5,28.5C 305.913,26.1099 306.579,23.7765 307.5,21.5C 307.744,25.0009 308.244,28.6676 309,32.5C 309.196,30.7139 310.029,29.3805 311.5,28.5C 312.796,35.0414 313.462,35.0414 313.5,28.5C 343.211,28.1747 372.877,28.5081 402.5,29.5C 403.696,29.1543 403.696,28.6543 402.5,28C 405.13,27.1554 407.464,27.6554 409.5,29.5C 410.518,28.8075 411.518,28.1408 412.5,27.5 Z"/></g>
<g><path style="opacity:1" fill="#aa2498" d="M 565.5,27.5 C 568.402,30.2895 570.568,33.6228 572,37.5C 573.199,40.7256 573.699,44.059 573.5,47.5C 573.762,48.9778 573.429,50.3112 572.5,51.5C 571.571,52.5498 570.905,52.5498 570.5,51.5C 570.708,49.0799 570.374,46.7466 569.5,44.5C 565.878,43.6747 562.211,43.1747 558.5,43C 525.835,42.5 493.168,42.3334 460.5,42.5C 460.388,37.407 459.555,37.407 458,42.5C 456.644,41.6198 455.144,41.2865 453.5,41.5C 453.662,39.4727 453.495,37.4727 453,35.5C 451.059,39.5537 450.225,39.2203 450.5,34.5C 451.766,33.9101 453.099,33.4101 454.5,33C 456.346,29.8208 458.846,27.3208 462,25.5C 464.578,27.0192 467.411,27.8525 470.5,28C 496.739,28.8277 522.906,28.661 549,27.5C 550.194,28.4303 551.527,29.0969 553,29.5C 555.735,26.8561 558.402,26.8561 561,29.5C 561.726,26.715 563.226,26.0484 565.5,27.5 Z"/></g>
<g><path style="opacity:1" fill="#ab2399" d="M 23.5,26.5 C 25.7288,27.0553 27.3954,28.3886 28.5,30.5C 29.8745,29.2887 31.3745,28.2887 33,27.5C 34.4681,28.6278 36.1348,29.2945 38,29.5C 63.8673,28.2196 89.8673,28.2196 116,29.5C 117.326,29.2451 118.326,28.5784 119,27.5C 120.085,28.2931 121.252,28.9598 122.5,29.5C 123.613,27.9686 125.113,26.9686 127,26.5C 129.633,27.9649 131.799,29.9649 133.5,32.5C 134.429,33.6888 134.762,35.0222 134.5,36.5C 130.5,37.1667 130.5,37.8333 134.5,38.5C 136.173,42.6957 135.34,43.3623 132,40.5C 131.085,41.3279 130.419,42.3279 130,43.5C 129.311,42.6433 128.478,41.9767 127.5,41.5C 92.8751,42.6596 58.2084,42.8263 23.5,42C 22.5838,41.6258 21.7504,41.1258 21,40.5C 20.5814,41.6721 19.9147,42.6721 19,43.5C 19.8134,40.4999 19.6468,37.4999 18.5,34.5C 19.3833,31.2957 21.0499,28.6291 23.5,26.5 Z"/></g>
<g><path style="opacity:1" fill="#ac2398" d="M 710.5,35.5 C 709.374,37.4995 709.207,39.4995 710,41.5C 709.667,41.8333 709.333,42.1667 709,42.5C 708.333,41.1667 707.667,39.8333 707,38.5C 706.517,39.448 706.351,40.448 706.5,41.5C 669.347,42.1517 632.347,41.4851 595.5,39.5C 594.785,41.7871 594.451,43.9538 594.5,46C 595.624,46.2492 596.624,46.7492 597.5,47.5C 596.478,48.354 595.645,49.354 595,50.5C 594.667,49.8333 594.333,49.1667 594,48.5C 593.601,48.7284 593.435,49.0618 593.5,49.5C 593.167,49.5 592.833,49.5 592.5,49.5C 593.579,45.8013 593.579,42.1346 592.5,38.5C 592.166,35.509 593.166,33.1757 595.5,31.5C 596.458,31.9528 597.292,32.6195 598,33.5C 600.562,27.9389 604.728,24.1055 610.5,22C 639.5,21.3333 668.5,21.3333 697.5,22C 699.754,23.3767 701.92,24.8767 704,26.5C 705.942,29.8213 708.109,32.8213 710.5,35.5 Z"/></g>
<g><path style="opacity:1" fill="#a6289d" d="M 277.5,43.5 C 278.445,48.4053 278.779,53.4053 278.5,58.5C 277.616,55.9768 276.782,53.3102 276,50.5C 275.587,53.2321 274.92,55.8987 274,58.5C 268.667,57.8333 263.333,57.1667 258,56.5C 257.296,58.727 256.129,59.0603 254.5,57.5C 254.5,56.5 254.5,55.5 254.5,54.5C 233.649,54.7935 212.815,54.4601 192,53.5C 189.59,53.4824 187.423,54.1491 185.5,55.5C 183.856,55.7135 182.356,55.3802 181,54.5C 176.422,56.6281 171.589,57.6281 166.5,57.5C 166.649,56.448 166.483,55.448 166,54.5C 165.118,57.7895 164.452,61.1228 164,64.5C 163.759,61.7111 163.092,59.0444 162,56.5C 161.758,60.4302 160.925,64.0968 159.5,67.5C 159.5,57.5 159.5,47.5 159.5,37.5C 160.391,38.1098 161.391,38.4431 162.5,38.5C 163.166,41.6893 163.833,45.0227 164.5,48.5C 165.321,45.5535 165.821,42.5535 166,39.5C 166.483,40.448 166.649,41.448 166.5,42.5C 202.179,42.772 237.846,42.4386 273.5,41.5C 273.579,40.0695 273.246,38.7362 272.5,37.5C 272.833,36.5 273.5,35.8333 274.5,35.5C 275.08,38.447 276.08,41.1137 277.5,43.5 Z"/></g>
<g><path style="opacity:1" fill="#a4279c" d="M 303.5,18.5 C 303.334,26.5069 303.5,34.5069 304,42.5C 304.174,37.6486 304.674,32.9819 305.5,28.5C 305.334,33.5111 305.501,38.5111 306,43.5C 306.333,42.5 306.667,41.5 307,40.5C 308.425,41.2123 309.925,41.379 311.5,41C 312.126,41.7504 312.626,42.5838 313,43.5C 329.281,42.1741 345.781,41.5074 362.5,41.5C 381.845,41.5613 401.178,41.8946 420.5,42.5C 420.833,43.1667 421.167,43.8333 421.5,44.5C 421.041,48.4393 421.041,52.2727 421.5,56C 421,56.5 420.5,57 420,57.5C 413.356,56.6937 406.69,57.0271 400,58.5C 398.989,57.9444 398.156,57.2778 397.5,56.5C 396.751,54.7538 395.417,53.7538 393.5,53.5C 372.814,54.8227 352.148,54.8227 331.5,53.5C 329.717,55.0225 329.051,57.0225 329.5,59.5C 328.732,60.2625 328.232,61.2625 328,62.5C 327,60.1667 326,57.8333 325,55.5C 324.5,56 324,56.5 323.5,57C 320.5,57.3333 317.5,57.6667 314.5,58C 313.773,59.3988 313.273,60.8988 313,62.5C 312.548,59.1228 311.882,55.7895 311,52.5C 310.592,55.4205 309.259,57.7538 307,59.5C 306.548,56.1228 305.882,52.7895 305,49.5C 304.123,59.1499 303.623,68.8165 303.5,78.5C 303.167,78.5 302.833,78.5 302.5,78.5C 302.17,58.3264 302.503,38.3264 303.5,18.5 Z"/></g>
<g><path style="opacity:1" fill="#a5289d" d="M 714.5,36.5 C 716.442,40.9389 717.442,45.6056 717.5,50.5C 716.85,50.8039 716.183,51.1373 715.5,51.5C 714.505,56.7921 714.172,62.1254 714.5,67.5C 706.167,67.5 697.833,67.5 689.5,67.5C 689.284,63.9408 689.618,60.4408 690.5,57C 690,55.1667 688.833,54 687,53.5C 665.517,54.8057 644.017,54.8057 622.5,53.5C 618.427,52.8526 616.427,54.5193 616.5,58.5C 615.033,61.2583 614.367,60.925 614.5,57.5C 608.848,56.9682 603.181,56.6349 597.5,56.5C 597.66,58.1992 597.494,59.8659 597,61.5C 596.333,60.1667 595.667,60.1667 595,61.5C 593.734,57.6049 593.234,53.6049 593.5,49.5C 593.435,49.0618 593.601,48.7284 594,48.5C 594.333,49.1667 594.667,49.8333 595,50.5C 595.645,49.354 596.478,48.354 597.5,47.5C 596.624,46.7492 595.624,46.2492 594.5,46C 594.451,43.9538 594.785,41.7871 595.5,39.5C 632.347,41.4851 669.347,42.1517 706.5,41.5C 706.351,40.448 706.517,39.448 707,38.5C 707.667,39.8333 708.333,41.1667 709,42.5C 709.333,42.1667 709.667,41.8333 710,41.5C 709.207,39.4995 709.374,37.4995 710.5,35.5C 710.435,35.0618 710.601,34.7284 711,34.5C 712.113,35.305 713.279,35.9717 714.5,36.5 Z"/></g>
<g><path style="opacity:1" fill="#a5289d" d="M 450.5,34.5 C 450.225,39.2203 451.059,39.5537 453,35.5C 453.495,37.4727 453.662,39.4727 453.5,41.5C 455.144,41.2865 456.644,41.6198 458,42.5C 459.555,37.407 460.388,37.407 460.5,42.5C 493.168,42.3334 525.835,42.5 558.5,43C 562.211,43.1747 565.878,43.6747 569.5,44.5C 570.374,46.7466 570.708,49.0799 570.5,51.5C 568.982,54.5341 568.149,57.8675 568,61.5C 567.691,60.2341 567.191,59.0674 566.5,58C 562.338,57.4589 558.172,56.9589 554,56.5C 551.019,57.0312 548.519,57.6978 546.5,58.5C 546.414,57.5041 546.748,56.6708 547.5,56C 545.854,54.3444 543.854,53.5111 541.5,53.5C 519.827,54.8224 498.16,54.8224 476.5,53.5C 473.686,53.981 472.352,55.6477 472.5,58.5C 471.85,58.8039 471.183,59.1373 470.5,59.5C 468.808,58.0314 466.808,57.3647 464.5,57.5C 461.409,58.4058 458.242,59.0724 455,59.5C 453.019,59.3708 451.353,58.7042 450,57.5C 449.5,64.1583 449.334,70.825 449.5,77.5C 448.732,76.7375 448.232,75.7375 448,74.5C 447.667,75.5 447.333,76.5 447,77.5C 446.5,69.5069 446.334,61.5069 446.5,53.5C 445.809,46.6158 447.142,40.2824 450.5,34.5 Z"/></g>
<g><path style="opacity:1" fill="#a2289b" d="M 18.5,34.5 C 19.6468,37.4999 19.8134,40.4999 19,43.5C 19.9147,42.6721 20.5814,41.6721 21,40.5C 21.7504,41.1258 22.5838,41.6258 23.5,42C 58.2084,42.8263 92.8751,42.6596 127.5,41.5C 128.478,41.9767 129.311,42.6433 130,43.5C 130.419,42.3279 131.085,41.3279 132,40.5C 135.34,43.3623 136.173,42.6957 134.5,38.5C 134.783,37.7109 135.283,37.0442 136,36.5C 136.953,39.4318 137.453,42.4318 137.5,45.5C 138.959,45.5674 140.292,45.2341 141.5,44.5C 142.15,46.4352 142.483,48.4352 142.5,50.5C 141.732,51.2625 141.232,52.2625 141,53.5C 140.667,52.5 140.333,51.5 140,50.5C 139.83,61.0081 139.33,71.3415 138.5,81.5C 139.087,75.6973 138.42,70.1973 136.5,65C 129.586,64.814 122.753,64.314 116,63.5C 115.823,67.3563 115.323,71.023 114.5,74.5C 114.666,68.4908 114.499,62.4908 114,56.5C 113.667,56.8333 113.333,57.1667 113,57.5C 112.829,64.6787 112.329,71.6787 111.5,78.5C 111.5,71.5 111.5,64.5 111.5,57.5C 103.821,57.4038 96.154,57.0705 88.5,56.5C 72.8048,56.7706 57.1381,56.4373 41.5,55.5C 41.5,59.5 41.5,63.5 41.5,67.5C 40.8386,66.2825 40.1719,64.9492 39.5,63.5C 31.222,64.4699 22.8886,64.8032 14.5,64.5C 14.3337,57.825 14.5004,51.1583 15,44.5C 15.5717,40.8368 16.7383,37.5035 18.5,34.5 Z"/></g>
<g><path style="opacity:0.675" fill="#9b2b8b" d="M 404.5,18.5 C 416.016,22.8011 422.849,31.1344 425,43.5C 425.5,51.8267 425.666,60.16 425.5,68.5C 424.833,61.9881 424.167,55.3214 423.5,48.5C 422.828,47.0508 422.161,45.7175 421.5,44.5C 421.167,43.8333 420.833,43.1667 420.5,42.5C 419.678,36.5221 417.011,31.5221 412.5,27.5C 410.176,23.9768 406.842,21.8101 402.5,21C 403.756,20.5831 404.423,19.7498 404.5,18.5 Z"/></g>
<g><path style="opacity:0.351" fill="#7b2979" d="M 546.5,58.5 C 546.262,60.4044 545.262,61.7377 543.5,62.5C 543.949,60.0225 543.283,58.0225 541.5,56.5C 519.879,57.4889 498.212,57.8222 476.5,57.5C 476.5,65.1667 476.5,72.8333 476.5,80.5C 475.728,79.3065 474.728,78.3065 473.5,77.5C 473.593,71.1373 473.26,64.8039 472.5,58.5C 472.352,55.6477 473.686,53.981 476.5,53.5C 498.16,54.8224 519.827,54.8224 541.5,53.5C 543.854,53.5111 545.854,54.3444 547.5,56C 546.748,56.6708 546.414,57.5041 546.5,58.5 Z"/></g>
<g><path style="opacity:0.391" fill="#93359d" d="M 592.5,38.5 C 593.579,42.1346 593.579,45.8013 592.5,49.5C 592.171,64.0097 592.504,78.3431 593.5,92.5C 594.784,99.3341 596.45,106.001 598.5,112.5C 600.858,112.253 602.858,112.919 604.5,114.5C 603.449,115.222 602.782,116.222 602.5,117.5C 595.221,111.615 591.054,103.948 590,94.5C 589.333,77.8333 589.333,61.1667 590,44.5C 590.24,42.1484 591.073,40.1484 592.5,38.5 Z"/></g>
<g><path style="opacity:1" fill="#9f2ea2" d="M 421.5,44.5 C 422.161,45.7175 422.828,47.0508 423.5,48.5C 424.167,55.3214 424.833,61.9881 425.5,68.5C 425.5,68.8333 425.5,69.1667 425.5,69.5C 423.214,70.3402 422.881,71.8402 424.5,74C 424,75.5 423.5,77 423,78.5C 422.075,77.9535 421.242,77.2868 420.5,76.5C 421.767,72.5709 420.267,70.2376 416,69.5C 411.01,70.9667 405.843,71.9667 400.5,72.5C 399.05,73.8498 398.383,75.5165 398.5,77.5C 397.5,77.5 396.5,77.5 395.5,77.5C 394.872,70.0869 395.539,63.0869 397.5,56.5C 398.156,57.2778 398.989,57.9444 400,58.5C 406.69,57.0271 413.356,56.6937 420,57.5C 420.5,57 421,56.5 421.5,56C 421.041,52.2727 421.041,48.4393 421.5,44.5 Z"/></g>
<g><path style="opacity:1" fill="#962fa1" d="M 573.5,47.5 C 574.461,49.2646 574.795,51.2646 574.5,53.5C 573.281,56.4212 572.614,59.5879 572.5,63C 573.403,74.8142 573.736,86.6475 573.5,98.5C 572.778,98.0825 572.278,97.4158 572,96.5C 571.536,97.0944 571.369,97.7611 571.5,98.5C 570.527,96.0521 570.194,93.3854 570.5,90.5C 566.486,90.6655 562.486,90.4988 558.5,90C 557.874,89.2496 557.374,88.4162 557,87.5C 554.295,91.0304 551.462,94.3637 548.5,97.5C 547.675,98.3857 546.675,98.719 545.5,98.5C 545.715,96.8212 545.048,95.8212 543.5,95.5C 543.5,84.5 543.5,73.5 543.5,62.5C 545.262,61.7377 546.262,60.4044 546.5,58.5C 548.519,57.6978 551.019,57.0312 554,56.5C 558.172,56.9589 562.338,57.4589 566.5,58C 567.191,59.0674 567.691,60.2341 568,61.5C 568.149,57.8675 568.982,54.5341 570.5,51.5C 570.905,52.5498 571.571,52.5498 572.5,51.5C 573.429,50.3112 573.762,48.9778 573.5,47.5 Z"/></g>
<g><path style="opacity:0.706" fill="#7f2e81" d="M 717.5,50.5 C 717.811,57.0898 717.478,63.5898 716.5,70C 706.833,70.6667 697.167,70.6667 687.5,70C 686.7,65.92 686.2,61.7533 686,57.5C 685.439,56.9781 684.772,56.6448 684,56.5C 662.867,57.4833 641.7,57.8167 620.5,57.5C 620.5,66.1667 620.5,74.8333 620.5,83.5C 644.836,83.3334 669.169,83.5 693.5,84C 696.191,84.1558 698.524,84.9891 700.5,86.5C 672.931,86.564 645.264,86.564 617.5,86.5C 616.528,77.25 616.195,67.9167 616.5,58.5C 616.427,54.5193 618.427,52.8526 622.5,53.5C 644.017,54.8057 665.517,54.8057 687,53.5C 688.833,54 690,55.1667 690.5,57C 689.618,60.4408 689.284,63.9408 689.5,67.5C 697.833,67.5 706.167,67.5 714.5,67.5C 714.172,62.1254 714.505,56.7921 715.5,51.5C 716.183,51.1373 716.85,50.8039 717.5,50.5 Z"/></g>
<g><path style="opacity:1" fill="#992ea5" d="M 138.5,81.5 C 138.5,83.5 138.5,85.5 138.5,87.5C 136.952,87.8212 136.285,88.8212 136.5,90.5C 129.5,90.5 122.5,90.5 115.5,90.5C 115.737,91.791 115.404,92.791 114.5,93.5C 114.5,87.1667 114.5,80.8333 114.5,74.5C 115.323,71.023 115.823,67.3563 116,63.5C 122.753,64.314 129.586,64.814 136.5,65C 138.42,70.1973 139.087,75.6973 138.5,81.5 Z"/></g>
<g><path style="opacity:1" fill="#9a2da4" d="M 472.5,58.5 C 473.26,64.8039 473.593,71.1373 473.5,77.5C 473.23,80.702 472.396,83.702 471,86.5C 467.767,85.2136 464.267,84.547 460.5,84.5C 457.167,84.6667 453.833,84.8333 450.5,85C 475.833,86.3324 475.833,86.9991 450.5,87C 449.549,83.9433 449.216,80.7766 449.5,77.5C 449.334,70.825 449.5,64.1583 450,57.5C 451.353,58.7042 453.019,59.3708 455,59.5C 458.242,59.0724 461.409,58.4058 464.5,57.5C 466.808,57.3647 468.808,58.0314 470.5,59.5C 471.183,59.1373 471.85,58.8039 472.5,58.5 Z"/></g>
<g><path style="opacity:1" fill="#9a2ea4" d="M 592.5,49.5 C 592.833,49.5 593.167,49.5 593.5,49.5C 593.234,53.6049 593.734,57.6049 595,61.5C 595.667,60.1667 596.333,60.1667 597,61.5C 597.494,59.8659 597.66,58.1992 597.5,56.5C 603.181,56.6349 608.848,56.9682 614.5,57.5C 614.367,60.925 615.033,61.2583 616.5,58.5C 616.195,67.9167 616.528,77.25 617.5,86.5C 616.566,87.5676 616.232,88.901 616.5,90.5C 608.356,90.1706 600.69,90.8373 593.5,92.5C 592.504,78.3431 592.171,64.0097 592.5,49.5 Z"/></g>
<g><path style="opacity:1" fill="#992fa5" d="M 41.5,67.5 C 41.5,75.5 41.5,83.5 41.5,91.5C 33.8756,90.6022 26.2089,90.2689 18.5,90.5C 18.5,92.8333 18.5,95.1667 18.5,97.5C 17.5,97.5 16.5,97.5 15.5,97.5C 15.7845,99.4147 15.4511,101.081 14.5,102.5C 14.5,89.8333 14.5,77.1667 14.5,64.5C 22.8886,64.8032 31.222,64.4699 39.5,63.5C 40.1719,64.9492 40.8386,66.2825 41.5,67.5 Z"/></g>
<g><path style="opacity:0.862" fill="#7a3083" d="M 279.5,38.5 C 280.925,41.9032 281.758,45.5698 282,49.5C 282.766,64.1819 282.6,78.8486 281.5,93.5C 282.541,97.9172 283.874,102.25 285.5,106.5C 284.099,106.029 282.766,105.362 281.5,104.5C 280.334,101.497 278.667,98.8302 276.5,96.5C 277.747,94.677 278.414,92.677 278.5,90.5C 278.5,79.8333 278.5,69.1667 278.5,58.5C 278.779,53.4053 278.445,48.4053 277.5,43.5C 277.831,41.6776 278.498,40.0109 279.5,38.5 Z"/></g>
<g><path style="opacity:0.421" fill="#6d2b73" d="M 88.5,56.5 C 74.3392,57.3312 60.0059,57.8312 45.5,58C 44.1762,70.1666 44.1762,82.3333 45.5,94.5C 42.4633,96.1859 41.13,95.1859 41.5,91.5C 41.5,83.5 41.5,75.5 41.5,67.5C 41.5,63.5 41.5,59.5 41.5,55.5C 57.1381,56.4373 72.8048,56.7706 88.5,56.5 Z"/></g>
<g><path style="opacity:0.996" fill="#88328e" d="M 254.5,57.5 C 254.832,66.5246 254.498,75.5246 253.5,84.5C 231.535,85.822 209.535,85.822 187.5,84.5C 185.562,75.0266 184.895,65.36 185.5,55.5C 187.423,54.1491 189.59,53.4824 192,53.5C 212.815,54.4601 233.649,54.7935 254.5,54.5C 254.5,55.5 254.5,56.5 254.5,57.5 Z M 248.5,56.5 C 249.79,57.0577 250.623,58.0577 251,59.5C 251.667,66.5 251.667,73.5 251,80.5C 250.5,81 250,81.5 249.5,82C 229.48,82.7722 209.48,82.6056 189.5,81.5C 189.5,73.5 189.5,65.5 189.5,57.5C 209.34,57.8304 229.007,57.4971 248.5,56.5 Z"/></g>
<g><path style="opacity:0.997" fill="#792e7f" d="M 397.5,56.5 C 395.539,63.0869 394.872,70.0869 395.5,77.5C 395.5,80.1667 395.5,82.8333 395.5,85.5C 373.831,85.6666 352.164,85.5 330.5,85C 329.517,76.5851 329.183,68.0851 329.5,59.5C 329.051,57.0225 329.717,55.0225 331.5,53.5C 352.148,54.8227 372.814,54.8227 393.5,53.5C 395.417,53.7538 396.751,54.7538 397.5,56.5 Z M 333.5,57.5 C 353.833,57.5 374.167,57.5 394.5,57.5C 394.816,65.7524 394.482,73.919 393.5,82C 384.333,82.1667 375.167,82.3333 366,82.5C 355.239,82.4502 344.739,82.1169 334.5,81.5C 333.502,73.5277 333.169,65.5277 333.5,57.5 Z"/></g>
<g><path style="opacity:1" fill="#9830a6" d="M 329.5,59.5 C 329.183,68.0851 329.517,76.5851 330.5,85C 352.164,85.5 373.831,85.6666 395.5,85.5C 395.5,82.8333 395.5,80.1667 395.5,77.5C 396.5,77.5 397.5,77.5 398.5,77.5C 398.383,75.5165 399.05,73.8498 400.5,72.5C 405.843,71.9667 411.01,70.9667 416,69.5C 420.267,70.2376 421.767,72.5709 420.5,76.5C 421.242,77.2868 422.075,77.9535 423,78.5C 423.5,77 424,75.5 424.5,74C 422.881,71.8402 423.214,70.3402 425.5,69.5C 425.5,75.5 425.5,81.5 425.5,87.5C 424.504,87.4142 423.671,87.7476 423,88.5C 422.023,90.74 421.523,93.0733 421.5,95.5C 420.252,93.7006 419.252,91.8673 418.5,90C 393.154,91.0987 367.821,90.5987 342.5,88.5C 335.997,89.1337 329.497,89.8003 323,90.5C 319.582,90.4805 316.249,90.1472 313,89.5C 312.333,90.1667 311.667,90.8333 311,91.5C 310.027,89.6079 309.36,87.6079 309,85.5C 308.29,86.9733 307.124,87.6399 305.5,87.5C 305.587,84.2613 304.92,81.2613 303.5,78.5C 303.623,68.8165 304.123,59.1499 305,49.5C 305.882,52.7895 306.548,56.1228 307,59.5C 309.259,57.7538 310.592,55.4205 311,52.5C 311.882,55.7895 312.548,59.1228 313,62.5C 313.273,60.8988 313.773,59.3988 314.5,58C 317.5,57.6667 320.5,57.3333 323.5,57C 324,56.5 324.5,56 325,55.5C 326,57.8333 327,60.1667 328,62.5C 328.232,61.2625 328.732,60.2625 329.5,59.5 Z"/></g>
<g><path style="opacity:1" fill="#982fa6" d="M 278.5,58.5 C 278.5,69.1667 278.5,79.8333 278.5,90.5C 242.202,91.7553 204.868,91.7553 166.5,90.5C 166.649,91.552 166.483,92.552 166,93.5C 165.261,91.7795 164.427,90.1128 163.5,88.5C 162.679,91.4465 162.179,94.4465 162,97.5C 161.692,96.6919 161.192,96.0253 160.5,95.5C 159.502,86.1904 159.168,76.8571 159.5,67.5C 160.925,64.0968 161.758,60.4302 162,56.5C 163.092,59.0444 163.759,61.7111 164,64.5C 164.452,61.1228 165.118,57.7895 166,54.5C 166.483,55.448 166.649,56.448 166.5,57.5C 171.589,57.6281 176.422,56.6281 181,54.5C 182.356,55.3802 183.856,55.7135 185.5,55.5C 184.895,65.36 185.562,75.0266 187.5,84.5C 209.535,85.822 231.535,85.822 253.5,84.5C 254.498,75.5246 254.832,66.5246 254.5,57.5C 256.129,59.0603 257.296,58.727 258,56.5C 263.333,57.1667 268.667,57.8333 274,58.5C 274.92,55.8987 275.587,53.2321 276,50.5C 276.782,53.3102 277.616,55.9768 278.5,58.5 Z M 248.5,56.5 C 229.007,57.4971 209.34,57.8304 189.5,57.5C 189.5,65.5 189.5,73.5 189.5,81.5C 209.48,82.6056 229.48,82.7722 249.5,82C 250,81.5 250.5,81 251,80.5C 251.667,73.5 251.667,66.5 251,59.5C 250.623,58.0577 249.79,57.0577 248.5,56.5 Z"/></g>
<g><path style="opacity:0.008" fill="#710471" d="M 574.5,53.5 C 574.5,96.8333 574.5,140.167 574.5,183.5C 573.502,155.338 573.169,127.005 573.5,98.5C 573.736,86.6475 573.403,74.8142 572.5,63C 572.614,59.5879 573.281,56.4212 574.5,53.5 Z"/></g>
<g><path style="opacity:0.686" fill="#9240a4" d="M 114.5,74.5 C 114.5,80.8333 114.5,87.1667 114.5,93.5C 114.119,94.9311 113.119,95.7645 111.5,96C 111.833,96.3333 112.167,96.6667 112.5,97C 89.5,97.6667 66.5,97.6667 43.5,97C 44.4158,96.7216 45.0825,96.2216 45.5,95.5C 67.1692,95.6666 88.8359,95.5 110.5,95C 111.473,89.5934 111.807,84.0934 111.5,78.5C 112.329,71.6787 112.829,64.6787 113,57.5C 113.333,57.1667 113.667,56.8333 114,56.5C 114.499,62.4908 114.666,68.4908 114.5,74.5 Z"/></g>
<g><path style="opacity:0.694" fill="#803393" d="M 425.5,87.5 C 425.335,90.8499 425.502,94.1832 426,97.5C 427.782,100.632 428.948,103.965 429.5,107.5C 427.466,105.073 425.299,102.74 423,100.5C 422.392,98.8455 421.892,97.1789 421.5,95.5C 421.523,93.0733 422.023,90.74 423,88.5C 423.671,87.7476 424.504,87.4142 425.5,87.5 Z"/></g>
<g><path style="opacity:1" fill="#8b34a6" d="M 446.5,53.5 C 446.334,61.5069 446.5,69.5069 447,77.5C 447.333,76.5 447.667,75.5 448,74.5C 448.232,75.7375 448.732,76.7375 449.5,77.5C 449.216,80.7766 449.549,83.9433 450.5,87C 475.833,86.9991 475.833,86.3324 450.5,85C 453.833,84.8333 457.167,84.6667 460.5,84.5C 464.267,84.547 467.767,85.2136 471,86.5C 472.396,83.702 473.23,80.702 473.5,77.5C 474.728,78.3065 475.728,79.3065 476.5,80.5C 476.197,85.43 476.531,90.2633 477.5,95C 499.497,95.5 521.497,95.6666 543.5,95.5C 545.048,95.8212 545.715,96.8212 545.5,98.5C 546.675,98.719 547.675,98.3857 548.5,97.5C 551.462,94.3637 554.295,91.0304 557,87.5C 557.374,88.4162 557.874,89.2496 558.5,90C 562.486,90.4988 566.486,90.6655 570.5,90.5C 570.194,93.3854 570.527,96.0521 571.5,98.5C 571.5,104.833 571.5,111.167 571.5,117.5C 571.167,117.5 570.833,117.5 570.5,117.5C 569.91,113.799 569.077,110.133 568,106.5C 567.51,107.793 567.343,109.127 567.5,110.5C 528.832,110.667 490.165,110.5 451.5,110C 450.934,109.005 450.267,108.172 449.5,107.5C 449.66,105.801 449.494,104.134 449,102.5C 448.875,105.289 448.042,106.955 446.5,107.5C 445.167,89.5 445.167,71.5 446.5,53.5 Z"/></g>
<g><path style="opacity:1" fill="#8f35ab" d="M 302.5,78.5 C 302.833,78.5 303.167,78.5 303.5,78.5C 304.92,81.2613 305.587,84.2613 305.5,87.5C 307.124,87.6399 308.29,86.9733 309,85.5C 309.36,87.6079 310.027,89.6079 311,91.5C 311.667,90.8333 312.333,90.1667 313,89.5C 316.249,90.1472 319.582,90.4805 323,90.5C 329.497,89.8003 335.997,89.1337 342.5,88.5C 367.821,90.5987 393.154,91.0987 418.5,90C 419.252,91.8673 420.252,93.7006 421.5,95.5C 421.892,97.1789 422.392,98.8455 423,100.5C 425.299,102.74 427.466,105.073 429.5,107.5C 429.5,108.167 429.5,108.833 429.5,109.5C 429.565,109.938 429.399,110.272 429,110.5C 428.292,109.619 427.458,108.953 426.5,108.5C 426.013,107.527 425.513,106.527 425,105.5C 425.012,108.651 424.012,111.318 422,113.5C 421.667,111.833 421.333,110.167 421,108.5C 403.218,109.827 385.218,110.493 367,110.5C 348.928,110.497 330.928,110.163 313,109.5C 312.085,110.328 311.419,111.328 311,112.5C 310.418,109.332 309.418,108.999 308,111.5C 306.612,111.786 305.112,111.452 303.5,110.5C 303.827,100.985 303.494,91.6517 302.5,82.5C 302.5,81.1667 302.5,79.8333 302.5,78.5 Z"/></g>
<g><path style="opacity:1" fill="#8f35ab" d="M 138.5,87.5 C 138.5,95.5 138.5,103.5 138.5,111.5C 137.698,110.048 137.198,108.382 137,106.5C 136.51,107.793 136.343,109.127 136.5,110.5C 99.3132,110.818 62.1465,110.485 25,109.5C 23.8926,109.585 22.8926,109.919 22,110.5C 20.8532,113.135 19.3532,115.468 17.5,117.5C 16.1429,118.59 15.1429,119.924 14.5,121.5C 14.5,115.167 14.5,108.833 14.5,102.5C 15.4511,101.081 15.7845,99.4147 15.5,97.5C 16.5,97.5 17.5,97.5 18.5,97.5C 18.5,95.1667 18.5,92.8333 18.5,90.5C 26.2089,90.2689 33.8756,90.6022 41.5,91.5C 41.13,95.1859 42.4633,96.1859 45.5,94.5C 45.5,94.8333 45.5,95.1667 45.5,95.5C 45.0825,96.2216 44.4158,96.7216 43.5,97C 66.5,97.6667 89.5,97.6667 112.5,97C 112.167,96.6667 111.833,96.3333 111.5,96C 113.119,95.7645 114.119,94.9311 114.5,93.5C 115.404,92.791 115.737,91.791 115.5,90.5C 122.5,90.5 129.5,90.5 136.5,90.5C 136.285,88.8212 136.952,87.8212 138.5,87.5 Z"/></g>
<g><path style="opacity:1" fill="#8733a2" d="M 158.5,25.5 C 159.483,29.2984 159.817,33.2984 159.5,37.5C 159.5,47.5 159.5,57.5 159.5,67.5C 159.168,76.8571 159.502,86.1904 160.5,95.5C 161.192,96.0253 161.692,96.6919 162,97.5C 162.179,94.4465 162.679,91.4465 163.5,88.5C 164.427,90.1128 165.261,91.7795 166,93.5C 166.483,92.552 166.649,91.552 166.5,90.5C 204.868,91.7553 242.202,91.7553 278.5,90.5C 278.414,92.677 277.747,94.677 276.5,96.5C 278.667,98.8302 280.334,101.497 281.5,104.5C 282.766,105.362 284.099,106.029 285.5,106.5C 285.5,107.167 285.5,107.833 285.5,108.5C 284.224,111.336 283.558,114.336 283.5,117.5C 281.037,117.103 279.037,115.936 277.5,114C 278.167,113.667 278.833,113.333 279.5,113C 278.289,111.887 278.289,110.72 279.5,109.5C 276.198,104.27 275.198,104.437 276.5,110C 276.37,111.059 275.87,111.892 275,112.5C 239.053,110.676 202.886,109.843 166.5,110C 165.953,109.075 165.287,108.242 164.5,107.5C 163.513,110.768 163.18,114.102 163.5,117.5C 161.78,119.658 160.947,122.325 161,125.5C 160.667,123.833 160.333,122.167 160,120.5C 159.5,129.16 159.334,137.827 159.5,146.5C 159.821,152.026 159.488,157.36 158.5,162.5C 158.5,116.833 158.5,71.1667 158.5,25.5 Z"/></g>
<g><path style="opacity:1" fill="#8f34ab" d="M 617.5,86.5 C 645.264,86.564 672.931,86.564 700.5,86.5C 700.833,86.5 701.167,86.5 701.5,86.5C 701.34,88.1992 701.506,89.8659 702,91.5C 708.682,96.8643 712.182,103.864 712.5,112.5C 712.179,114.048 711.179,114.715 709.5,114.5C 709.333,117.957 708.333,118.29 706.5,115.5C 707.494,112.103 707.16,108.769 705.5,105.5C 705.55,106.848 705.217,108.348 704.5,110C 671.928,110.829 639.428,110.662 607,109.5C 606.243,111.315 605.41,112.981 604.5,114.5C 602.858,112.919 600.858,112.253 598.5,112.5C 596.45,106.001 594.784,99.3341 593.5,92.5C 600.69,90.8373 608.356,90.1706 616.5,90.5C 616.232,88.901 616.566,87.5676 617.5,86.5 Z"/></g>
<g><path style="opacity:1" fill="#8838b0" d="M 712.5,112.5 C 714.145,117.234 714.811,122.234 714.5,127.5C 713.596,128.209 713.263,129.209 713.5,130.5C 707.5,130.5 701.5,130.5 695.5,130.5C 695.66,128.801 695.494,127.134 695,125.5C 694.82,128.956 694.153,132.289 693,135.5C 692.749,133.567 692.249,131.734 691.5,130C 691.957,129.586 692.291,129.086 692.5,128.5C 689.705,127.752 689.038,126.252 690.5,124C 690.167,123.5 689.833,123 689.5,122.5C 688.583,123.127 687.583,123.461 686.5,123.5C 686.539,122.417 686.873,121.417 687.5,120.5C 665.33,119.227 643.163,119.227 621,120.5C 615.761,120.483 610.927,119.15 606.5,116.5C 605.818,117.243 605.151,117.909 604.5,118.5C 603.508,118.672 602.842,118.338 602.5,117.5C 602.782,116.222 603.449,115.222 604.5,114.5C 605.41,112.981 606.243,111.315 607,109.5C 639.428,110.662 671.928,110.829 704.5,110C 705.217,108.348 705.55,106.848 705.5,105.5C 707.16,108.769 707.494,112.103 706.5,115.5C 708.333,118.29 709.333,117.957 709.5,114.5C 711.179,114.715 712.179,114.048 712.5,112.5 Z"/></g>
<g><path style="opacity:1" fill="#8838b0" d="M 283.5,117.5 C 283.5,125.5 283.5,133.5 283.5,141.5C 282.59,139.981 281.757,138.315 281,136.5C 280.333,139.167 279.667,139.167 279,136.5C 276.787,137.76 274.287,138.426 271.5,138.5C 268.713,138.426 266.213,137.76 264,136.5C 262.667,137.167 261.667,138.167 261,139.5C 260.814,142.036 260.314,144.369 259.5,146.5C 259.666,137.494 259.5,128.494 259,119.5C 258.612,118.572 257.945,117.905 257,117.5C 234.154,118.829 211.321,118.829 188.5,117.5C 185.717,120.484 184.717,123.817 185.5,127.5C 185.5,128.5 185.5,129.5 185.5,130.5C 179.167,130.5 172.833,130.5 166.5,130.5C 166.649,131.552 166.483,132.552 166,133.5C 164.038,128.344 163.205,123.011 163.5,117.5C 163.18,114.102 163.513,110.768 164.5,107.5C 165.287,108.242 165.953,109.075 166.5,110C 202.886,109.843 239.053,110.676 275,112.5C 275.87,111.892 276.37,111.059 276.5,110C 275.198,104.437 276.198,104.27 279.5,109.5C 278.289,110.72 278.289,111.887 279.5,113C 278.833,113.333 278.167,113.667 277.5,114C 279.037,115.936 281.037,117.103 283.5,117.5 Z"/></g>
<g><path style="opacity:1" fill="#8839b0" d="M 426.5,108.5 C 427.212,115.143 427.546,121.809 427.5,128.5C 426.732,129.263 426.232,130.263 426,131.5C 425.333,130.167 424.667,128.833 424,127.5C 423,128.833 422,130.167 421,131.5C 417.32,129.947 413.82,130.281 410.5,132.5C 409.194,131.088 408.36,129.421 408,127.5C 407.333,128.833 406.667,130.167 406,131.5C 404.257,128.043 403.257,124.377 403,120.5C 402.004,123.909 401.171,127.242 400.5,130.5C 400.207,126.563 400.54,122.73 401.5,119C 377.833,118.333 354.167,118.333 330.5,119C 329.524,125.076 329.19,131.242 329.5,137.5C 328.178,137.33 327.011,137.663 326,138.5C 325.692,137.692 325.192,137.025 324.5,136.5C 320.602,139.069 316.769,139.069 313,136.5C 312.381,139.032 311.381,141.365 310,143.5C 309.902,141.381 309.069,139.714 307.5,138.5C 306.749,139.376 306.249,140.376 306,141.5C 305.667,133.5 305.333,125.5 305,117.5C 304.501,122.489 304.334,127.489 304.5,132.5C 303.508,125.352 303.175,118.019 303.5,110.5C 305.112,111.452 306.612,111.786 308,111.5C 309.418,108.999 310.418,109.332 311,112.5C 311.419,111.328 312.085,110.328 313,109.5C 330.928,110.163 348.928,110.497 367,110.5C 385.218,110.493 403.218,109.827 421,108.5C 421.333,110.167 421.667,111.833 422,113.5C 424.012,111.318 425.012,108.651 425,105.5C 425.513,106.527 426.013,107.527 426.5,108.5 Z"/></g>
<g><path style="opacity:0.68" fill="#7d41a5" d="M 426.5,108.5 C 427.458,108.953 428.292,109.619 429,110.5C 429.399,110.272 429.565,109.938 429.5,109.5C 430.497,125.992 430.83,142.658 430.5,159.5C 429.839,158.282 429.172,156.949 428.5,155.5C 427.502,146.525 427.168,137.525 427.5,128.5C 427.546,121.809 427.212,115.143 426.5,108.5 Z"/></g>
<g><path style="opacity:1" fill="#853aaf" d="M 138.5,111.5 C 138.5,119.833 138.5,128.167 138.5,136.5C 136.257,137.312 133.924,137.979 131.5,138.5C 126.912,137.216 122.245,136.382 117.5,136C 116.309,135.302 115.309,134.469 114.5,133.5C 113.292,134.234 111.959,134.567 110.5,134.5C 88.8231,134.167 67.1564,134.5 45.5,135.5C 44.5614,139.765 44.2281,144.098 44.5,148.5C 43.7784,148.918 43.2784,149.584 43,150.5C 42.8255,145.649 42.3255,140.982 41.5,136.5C 40.5798,135.933 40.2465,136.599 40.5,138.5C 33.825,138.334 27.1583,138.5 20.5,139C 19.3333,139.5 18.5,140.333 18,141.5C 17.5003,133.507 17.3336,125.507 17.5,117.5C 19.3532,115.468 20.8532,113.135 22,110.5C 22.8926,109.919 23.8926,109.585 25,109.5C 62.1465,110.485 99.3132,110.818 136.5,110.5C 136.343,109.127 136.51,107.793 137,106.5C 137.198,108.382 137.698,110.048 138.5,111.5 Z"/></g>
<g><path style="opacity:1" fill="#8739b1" d="M 570.5,117.5 C 570.883,122.343 570.217,127.009 568.5,131.5C 561.892,130.538 555.226,130.205 548.5,130.5C 548.649,129.448 548.483,128.448 548,127.5C 546.887,128.711 545.72,128.711 544.5,127.5C 542.866,127.968 541.7,128.968 541,130.5C 539.484,127.949 538.651,128.282 538.5,131.5C 518.497,131.667 498.497,131.5 478.5,131C 476.122,130.026 476.456,129.359 479.5,129C 475.958,127.339 472.624,127.506 469.5,129.5C 463.202,130.496 456.868,130.83 450.5,130.5C 449.478,124.886 449.145,117.219 449.5,107.5C 450.267,108.172 450.934,109.005 451.5,110C 490.165,110.5 528.832,110.667 567.5,110.5C 567.343,109.127 567.51,107.793 568,106.5C 569.077,110.133 569.91,113.799 570.5,117.5 Z"/></g>
<g><path style="opacity:1" fill="#823ea5" d="M 686.5,123.5 C 661.371,122.726 636.038,122.226 610.5,122C 607.975,121.576 605.975,120.41 604.5,118.5C 605.151,117.909 605.818,117.243 606.5,116.5C 610.927,119.15 615.761,120.483 621,120.5C 643.163,119.227 665.33,119.227 687.5,120.5C 686.873,121.417 686.539,122.417 686.5,123.5 Z"/></g>
<g><path style="opacity:0.027" fill="#6d2a8d" d="M 302.5,82.5 C 303.494,91.6517 303.827,100.985 303.5,110.5C 303.175,118.019 303.508,125.352 304.5,132.5C 304.354,136.387 303.687,140.054 302.5,143.5C 302.5,123.167 302.5,102.833 302.5,82.5 Z"/></g>
<g><path style="opacity:0.842" fill="#813b96" d="M 142.5,50.5 C 142.5,70.5 142.5,90.5 142.5,110.5C 141.67,119.324 141.17,128.324 141,137.5C 140.329,136.748 139.496,136.414 138.5,136.5C 138.5,128.167 138.5,119.833 138.5,111.5C 138.5,103.5 138.5,95.5 138.5,87.5C 138.5,85.5 138.5,83.5 138.5,81.5C 139.33,71.3415 139.83,61.0081 140,50.5C 140.333,51.5 140.667,52.5 141,53.5C 141.232,52.2625 141.732,51.2625 142.5,50.5 Z"/></g>
<g><path style="opacity:1" fill="#803fb5" d="M 449.5,107.5 C 449.145,117.219 449.478,124.886 450.5,130.5C 456.868,130.83 463.202,130.496 469.5,129.5C 472.624,127.506 475.958,127.339 479.5,129C 476.456,129.359 476.122,130.026 478.5,131C 498.497,131.5 518.497,131.667 538.5,131.5C 538.651,128.282 539.484,127.949 541,130.5C 541.7,128.968 542.866,127.968 544.5,127.5C 545.72,128.711 546.887,128.711 548,127.5C 548.483,128.448 548.649,129.448 548.5,130.5C 555.226,130.205 561.892,130.538 568.5,131.5C 570.217,127.009 570.883,122.343 570.5,117.5C 570.833,117.5 571.167,117.5 571.5,117.5C 571.5,127.167 571.5,136.833 571.5,146.5C 570.835,148.369 570.169,150.369 569.5,152.5C 566.101,150.688 562.434,150.021 558.5,150.5C 558.5,149.5 558.5,148.5 558.5,147.5C 556.058,147.119 555.391,147.786 556.5,149.5C 555.354,150.719 554.354,152.052 553.5,153.5C 552.796,151.899 551.629,150.565 550,149.5C 548.956,150.623 548.29,151.956 548,153.5C 547.802,151.618 547.302,149.952 546.5,148.5C 546.666,143.489 546.499,138.489 546,133.5C 545.329,134.252 544.496,134.586 543.5,134.5C 543.167,134.5 542.833,134.5 542.5,134.5C 520.004,133.337 497.337,133.17 474.5,134C 475.044,134.717 475.711,135.217 476.5,135.5C 476.5,136.833 476.5,138.167 476.5,139.5C 475.823,143.571 474.823,147.571 473.5,151.5C 473.5,146.167 473.5,140.833 473.5,135.5C 472.167,135.5 470.833,135.5 469.5,135.5C 469.5,136.5 469.5,137.5 469.5,138.5C 462.898,138.39 456.398,137.723 450,136.5C 449.501,141.155 449.334,145.821 449.5,150.5C 448.681,147.695 448.181,144.695 448,141.5C 447.667,142.833 447.333,144.167 447,145.5C 446.501,140.511 446.334,135.511 446.5,130.5C 446.416,122.623 446.416,114.957 446.5,107.5C 448.042,106.955 448.875,105.289 449,102.5C 449.494,104.134 449.66,105.801 449.5,107.5 Z"/></g>
<g><path style="opacity:0.043" fill="#492c70" d="M 542.5,134.5 C 520.425,134.178 498.425,134.511 476.5,135.5C 475.711,135.217 475.044,134.717 474.5,134C 497.337,133.17 520.004,133.337 542.5,134.5 Z"/></g>
<g><path style="opacity:0.907" fill="#7740a0" d="M 701.5,86.5 C 710.194,92.5366 715.36,100.87 717,111.5C 717.667,128.167 717.667,144.833 717,161.5C 716.107,167.721 713.607,173.054 709.5,177.5C 709.768,175.901 709.434,174.568 708.5,173.5C 710.025,171.784 711.025,169.784 711.5,167.5C 712.5,167.5 713.5,167.5 714.5,167.5C 714.244,154.215 714.244,140.882 714.5,127.5C 714.811,122.234 714.145,117.234 712.5,112.5C 712.182,103.864 708.682,96.8643 702,91.5C 701.506,89.8659 701.34,88.1992 701.5,86.5 Z"/></g>
<g><path style="opacity:1" fill="#7b41b6" d="M 714.5,127.5 C 714.244,140.882 714.244,154.215 714.5,167.5C 713.5,167.5 712.5,167.5 711.5,167.5C 710.472,166.926 709.472,166.593 708.5,166.5C 709.292,163.874 709.959,161.208 710.5,158.5C 710.444,157.263 709.944,156.263 709,155.5C 708.186,161.23 707.019,161.564 705.5,156.5C 703.883,157.642 702.05,158.309 700,158.5C 692.161,159.676 684.327,159.676 676.5,158.5C 676.291,157.914 675.957,157.414 675.5,157C 655.475,156.749 635.642,156.249 616,155.5C 609.679,156.959 603.846,159.626 598.5,163.5C 597.719,164.729 597.219,166.062 597,167.5C 596.882,164.629 596.216,161.962 595,159.5C 594.264,162.592 594.431,165.592 595.5,168.5C 594.778,169.551 593.778,170.218 592.5,170.5C 592.5,169.833 592.5,169.167 592.5,168.5C 593.019,158.58 593.019,148.58 592.5,138.5C 600.196,138.831 607.862,138.497 615.5,137.5C 616.243,136.818 616.909,136.151 617.5,135.5C 618.458,135.953 619.292,136.619 620,137.5C 620.176,141.688 620.676,145.688 621.5,149.5C 632.161,150.167 642.995,150.5 654,150.5C 665.188,150.499 676.021,149.832 686.5,148.5C 686.5,140.167 686.5,131.833 686.5,123.5C 687.583,123.461 688.583,123.127 689.5,122.5C 689.833,123 690.167,123.5 690.5,124C 689.038,126.252 689.705,127.752 692.5,128.5C 692.291,129.086 691.957,129.586 691.5,130C 692.249,131.734 692.749,133.567 693,135.5C 694.153,132.289 694.82,128.956 695,125.5C 695.494,127.134 695.66,128.801 695.5,130.5C 701.5,130.5 707.5,130.5 713.5,130.5C 713.263,129.209 713.596,128.209 714.5,127.5 Z"/></g>
<g><path style="opacity:1" fill="#7c42b8" d="M 17.5,117.5 C 17.3336,125.507 17.5003,133.507 18,141.5C 18.5,140.333 19.3333,139.5 20.5,139C 27.1583,138.5 33.825,138.334 40.5,138.5C 40.2465,136.599 40.5798,135.933 41.5,136.5C 41.5,143.5 41.5,150.5 41.5,157.5C 40.7784,157.082 40.2784,156.416 40,155.5C 39.51,156.793 39.3433,158.127 39.5,159.5C 32.3818,160.105 25.5485,159.438 19,157.5C 18.3333,164.167 17.6667,164.167 17,157.5C 16.2917,158.381 15.4584,159.047 14.5,159.5C 14.5,146.833 14.5,134.167 14.5,121.5C 15.1429,119.924 16.1429,118.59 17.5,117.5 Z"/></g>
<g><path style="opacity:0.383" fill="#7143a2" d="M 617.5,135.5 C 616.909,136.151 616.243,136.818 615.5,137.5C 607.862,138.497 600.196,138.831 592.5,138.5C 593.019,148.58 593.019,158.58 592.5,168.5C 591.224,166.438 590.39,164.104 590,161.5C 589.168,153.147 589.335,144.813 590.5,136.5C 599.446,135.528 608.446,135.194 617.5,135.5 Z"/></g>
<g><path style="opacity:0.051" fill="#3c265e" d="M 686.5,148.5 C 676.021,149.832 665.188,150.499 654,150.5C 642.995,150.5 632.161,150.167 621.5,149.5C 643.242,149.822 664.909,149.488 686.5,148.5 Z"/></g>
<g><path style="opacity:0.864" fill="#73419f" d="M 259.5,146.5 C 259.739,148.467 259.406,150.301 258.5,152C 235.502,152.5 212.502,152.667 189.5,152.5C 189.719,153.675 189.386,154.675 188.5,155.5C 187.795,153.328 186.795,151.328 185.5,149.5C 186.814,142.038 186.814,134.705 185.5,127.5C 184.717,123.817 185.717,120.484 188.5,117.5C 211.321,118.829 234.154,118.829 257,117.5C 257.945,117.905 258.612,118.572 259,119.5C 259.5,128.494 259.666,137.494 259.5,146.5 Z M 189.5,121.5 C 211.503,121.333 233.503,121.5 255.5,122C 255.608,131.041 255.608,140.208 255.5,149.5C 233.5,149.5 211.5,149.5 189.5,149.5C 189.5,140.167 189.5,130.833 189.5,121.5 Z"/></g>
<g><path style="opacity:0.876" fill="#733ea0" d="M 400.5,130.5 C 400.822,136.358 400.489,142.025 399.5,147.5C 399.5,138.833 399.5,130.167 399.5,121.5C 377.5,121.5 355.5,121.5 333.5,121.5C 333.182,130.751 333.515,139.917 334.5,149C 356.337,149.829 378.004,149.663 399.5,148.5C 400.434,149.568 400.768,150.901 400.5,152.5C 377.164,152.667 353.831,152.5 330.5,152C 329.531,147.263 329.197,142.43 329.5,137.5C 329.19,131.242 329.524,125.076 330.5,119C 354.167,118.333 377.833,118.333 401.5,119C 400.54,122.73 400.207,126.563 400.5,130.5 Z"/></g>
<g><path style="opacity:1" fill="#7b41ba" d="M 163.5,117.5 C 163.205,123.011 164.038,128.344 166,133.5C 166.483,132.552 166.649,131.552 166.5,130.5C 172.833,130.5 179.167,130.5 185.5,130.5C 185.5,129.5 185.5,128.5 185.5,127.5C 186.814,134.705 186.814,142.038 185.5,149.5C 186.795,151.328 187.795,153.328 188.5,155.5C 189.386,154.675 189.719,153.675 189.5,152.5C 212.502,152.667 235.502,152.5 258.5,152C 259.406,150.301 259.739,148.467 259.5,146.5C 260.314,144.369 260.814,142.036 261,139.5C 261.667,138.167 262.667,137.167 264,136.5C 266.213,137.76 268.713,138.426 271.5,138.5C 274.287,138.426 276.787,137.76 279,136.5C 279.667,139.167 280.333,139.167 281,136.5C 281.757,138.315 282.59,139.981 283.5,141.5C 284.21,150.871 283.21,159.871 280.5,168.5C 280.808,166.076 280.474,163.743 279.5,161.5C 241.757,161.547 203.923,161.547 166,161.5C 164.883,162.949 164.216,164.616 164,166.5C 162.726,159.897 162.226,153.23 162.5,146.5C 161.5,146.5 160.5,146.5 159.5,146.5C 159.334,137.827 159.5,129.16 160,120.5C 160.333,122.167 160.667,123.833 161,125.5C 160.947,122.325 161.78,119.658 163.5,117.5 Z"/></g>
<g><path style="opacity:1" fill="#7a42ba" d="M 329.5,137.5 C 329.197,142.43 329.531,147.263 330.5,152C 353.831,152.5 377.164,152.667 400.5,152.5C 400.768,150.901 400.434,149.568 399.5,148.5C 399.5,148.167 399.5,147.833 399.5,147.5C 400.489,142.025 400.822,136.358 400.5,130.5C 401.171,127.242 402.004,123.909 403,120.5C 403.257,124.377 404.257,128.043 406,131.5C 406.667,130.167 407.333,128.833 408,127.5C 408.36,129.421 409.194,131.088 410.5,132.5C 413.82,130.281 417.32,129.947 421,131.5C 422,130.167 423,128.833 424,127.5C 424.667,128.833 425.333,130.167 426,131.5C 426.232,130.263 426.732,129.263 427.5,128.5C 427.168,137.525 427.502,146.525 428.5,155.5C 429.172,156.949 429.839,158.282 430.5,159.5C 429.766,160.708 429.433,162.041 429.5,163.5C 428.141,161.176 426.141,159.51 423.5,158.5C 421.997,160.586 420.664,162.752 419.5,165C 418.167,165.167 416.833,165.333 415.5,165.5C 381.116,164.213 346.949,164.213 313,165.5C 311.219,162.726 309.885,159.726 309,156.5C 307.418,159.81 306.252,163.143 305.5,166.5C 305.502,161.5 304.502,156.833 302.5,152.5C 302.5,149.5 302.5,146.5 302.5,143.5C 303.687,140.054 304.354,136.387 304.5,132.5C 304.334,127.489 304.501,122.489 305,117.5C 305.333,125.5 305.667,133.5 306,141.5C 306.249,140.376 306.749,139.376 307.5,138.5C 309.069,139.714 309.902,141.381 310,143.5C 311.381,141.365 312.381,139.032 313,136.5C 316.769,139.069 320.602,139.069 324.5,136.5C 325.192,137.025 325.692,137.692 326,138.5C 327.011,137.663 328.178,137.33 329.5,137.5 Z M 399.5,147.5 C 399.5,147.833 399.5,148.167 399.5,148.5C 378.004,149.663 356.337,149.829 334.5,149C 333.515,139.917 333.182,130.751 333.5,121.5C 355.5,121.5 377.5,121.5 399.5,121.5C 399.5,130.167 399.5,138.833 399.5,147.5 Z"/></g>
<g><path style="opacity:1" fill="#7743bb" d="M 473.5,151.5 C 473.322,156.07 472.655,160.57 471.5,165C 473.104,171.765 472.77,178.599 470.5,185.5C 463.5,185.5 456.5,185.5 449.5,185.5C 449.5,173.833 449.5,162.167 449.5,150.5C 449.334,145.821 449.501,141.155 450,136.5C 456.398,137.723 462.898,138.39 469.5,138.5C 469.5,137.5 469.5,136.5 469.5,135.5C 470.833,135.5 472.167,135.5 473.5,135.5C 473.5,140.833 473.5,146.167 473.5,151.5 Z"/></g>
<g><path style="opacity:0.712" fill="#623b8d" d="M 285.5,108.5 C 286.309,110.292 286.809,112.292 287,114.5C 287.667,128.833 287.667,143.167 287,157.5C 285.823,167.179 281.99,175.513 275.5,182.5C 274.782,180.863 274.616,179.197 275,177.5C 278.031,175.254 279.864,172.254 280.5,168.5C 283.21,159.871 284.21,150.871 283.5,141.5C 283.5,133.5 283.5,125.5 283.5,117.5C 283.558,114.336 284.224,111.336 285.5,108.5 Z"/></g>
<g><path style="opacity:1" fill="#7346be" d="M 711.5,167.5 C 711.025,169.784 710.025,171.784 708.5,173.5C 707.122,174.234 705.622,174.901 704,175.5C 703.667,175.167 703.333,174.833 703,174.5C 703.333,176.167 703.667,177.833 704,179.5C 701.766,181.7 699.266,183.533 696.5,185C 668.167,185.667 639.833,185.667 611.5,185C 603.918,181.586 598.585,176.086 595.5,168.5C 594.431,165.592 594.264,162.592 595,159.5C 596.216,161.962 596.882,164.629 597,167.5C 597.219,166.062 597.719,164.729 598.5,163.5C 603.846,159.626 609.679,156.959 616,155.5C 635.642,156.249 655.475,156.749 675.5,157C 675.957,157.414 676.291,157.914 676.5,158.5C 684.327,159.676 692.161,159.676 700,158.5C 702.05,158.309 703.883,157.642 705.5,156.5C 707.019,161.564 708.186,161.23 709,155.5C 709.944,156.263 710.444,157.263 710.5,158.5C 709.959,161.208 709.292,163.874 708.5,166.5C 709.472,166.593 710.472,166.926 711.5,167.5 Z"/></g>
<g><path style="opacity:1" fill="#7246bd" d="M 41.5,157.5 C 41.5,166.833 41.5,176.167 41.5,185.5C 33.16,185.334 24.8267,185.5 16.5,186C 15.9558,186.717 15.2891,187.217 14.5,187.5C 14.3714,178.377 14.3714,169.043 14.5,159.5C 15.4584,159.047 16.2917,158.381 17,157.5C 17.6667,164.167 18.3333,164.167 19,157.5C 25.5485,159.438 32.3818,160.105 39.5,159.5C 39.3433,158.127 39.51,156.793 40,155.5C 40.2784,156.416 40.7784,157.082 41.5,157.5 Z"/></g>
<g><path style="opacity:1" fill="#7047c0" d="M 159.5,146.5 C 160.5,146.5 161.5,146.5 162.5,146.5C 162.226,153.23 162.726,159.897 164,166.5C 164.216,164.616 164.883,162.949 166,161.5C 203.923,161.547 241.757,161.547 279.5,161.5C 280.474,163.743 280.808,166.076 280.5,168.5C 279.864,172.254 278.031,175.254 275,177.5C 274.616,179.197 274.782,180.863 275.5,182.5C 274.833,182.833 274.167,183.167 273.5,183.5C 272.849,182.909 272.182,182.243 271.5,181.5C 269.954,182.684 268.287,183.684 266.5,184.5C 231.84,185.5 197.173,185.833 162.5,185.5C 162.257,178.431 161.423,178.097 160,184.5C 159.828,177.654 159.328,170.987 158.5,164.5C 158.5,163.833 158.5,163.167 158.5,162.5C 159.488,157.36 159.821,152.026 159.5,146.5 Z"/></g>
<g><path style="opacity:1" fill="#7047c0" d="M 429.5,163.5 C 428.284,168.262 426.284,172.595 423.5,176.5C 423.657,175.127 423.49,173.793 423,172.5C 419.422,178.194 414.589,182.36 408.5,185C 374.168,185.5 339.835,185.667 305.5,185.5C 305.5,179.167 305.5,172.833 305.5,166.5C 306.252,163.143 307.418,159.81 309,156.5C 309.885,159.726 311.219,162.726 313,165.5C 346.949,164.213 381.116,164.213 415.5,165.5C 416.833,165.333 418.167,165.167 419.5,165C 420.664,162.752 421.997,160.586 423.5,158.5C 426.141,159.51 428.141,161.176 429.5,163.5 Z"/></g>
<g><path style="opacity:1" fill="#5c3e93" d="M 446.5,130.5 C 446.334,135.511 446.501,140.511 447,145.5C 447.333,144.167 447.667,142.833 448,141.5C 448.181,144.695 448.681,147.695 449.5,150.5C 449.5,162.167 449.5,173.833 449.5,185.5C 456.5,185.5 463.5,185.5 470.5,185.5C 472.77,178.599 473.104,171.765 471.5,165C 472.655,160.57 473.322,156.07 473.5,151.5C 474.823,147.571 475.823,143.571 476.5,139.5C 476.833,155.847 476.499,172.18 475.5,188.5C 466.548,189.639 457.548,189.805 448.5,189C 447.584,188.626 446.75,188.126 446,187.5C 445.833,183.167 445.667,178.833 445.5,174.5C 445.574,159.704 445.908,145.037 446.5,130.5 Z"/></g>
<g><path style="opacity:1" fill="#5b4098" d="M 302.5,152.5 C 304.502,156.833 305.502,161.5 305.5,166.5C 305.5,172.833 305.5,179.167 305.5,185.5C 339.835,185.667 374.168,185.5 408.5,185C 414.589,182.36 419.422,178.194 423,172.5C 423.49,173.793 423.657,175.127 423.5,176.5C 419.557,184.148 413.224,188.315 404.5,189C 371.167,189.667 337.833,189.667 304.5,189C 302.533,177.084 301.866,164.918 302.5,152.5 Z"/></g>
<g><path style="opacity:0.851" fill="#68489c" d="M 142.5,110.5 C 142.667,136.169 142.5,161.835 142,187.5C 141.25,188.126 140.416,188.626 139.5,189C 130.132,189.752 120.799,189.585 111.5,188.5C 111.819,170.423 111.486,152.423 110.5,134.5C 111.959,134.567 113.292,134.234 114.5,133.5C 114.172,145.678 114.505,157.678 115.5,169.5C 115.5,175.167 115.5,180.833 115.5,186.5C 123.167,186.5 130.833,186.5 138.5,186.5C 138.5,180.167 138.5,173.833 138.5,167.5C 138.5,157.167 138.5,146.833 138.5,136.5C 139.496,136.414 140.329,136.748 141,137.5C 141.17,128.324 141.67,119.324 142.5,110.5 Z"/></g>
<g><path style="opacity:1" fill="#7147bf" d="M 138.5,167.5 C 138.5,173.833 138.5,180.167 138.5,186.5C 130.833,186.5 123.167,186.5 115.5,186.5C 115.5,180.833 115.5,175.167 115.5,169.5C 115.351,168.448 115.517,167.448 116,166.5C 117.008,171.541 117.508,171.208 117.5,165.5C 124.708,164.996 131.708,165.663 138.5,167.5 Z"/></g>
<g><path style="opacity:1" fill="#7a42b9" d="M 114.5,133.5 C 115.309,134.469 116.309,135.302 117.5,136C 122.245,136.382 126.912,137.216 131.5,138.5C 133.924,137.979 136.257,137.312 138.5,136.5C 138.5,146.833 138.5,157.167 138.5,167.5C 131.708,165.663 124.708,164.996 117.5,165.5C 117.508,171.208 117.008,171.541 116,166.5C 115.517,167.448 115.351,168.448 115.5,169.5C 114.505,157.678 114.172,145.678 114.5,133.5 Z"/></g>
<g><path style="opacity:0.825" fill="#594194" d="M 158.5,164.5 C 159.328,170.987 159.828,177.654 160,184.5C 161.423,178.097 162.257,178.431 162.5,185.5C 197.173,185.833 231.84,185.5 266.5,184.5C 268.287,183.684 269.954,182.684 271.5,181.5C 272.182,182.243 272.849,182.909 273.5,183.5C 269.77,187.361 265.103,189.195 259.5,189C 226.5,189.667 193.5,189.667 160.5,189C 158.551,181.106 157.884,172.939 158.5,164.5 Z"/></g>
<g><path style="opacity:0.201" fill="#6345a2" d="M 41.5,136.5 C 42.3255,140.982 42.8255,145.649 43,150.5C 43.2784,149.584 43.7784,148.918 44.5,148.5C 44.5,161.833 44.5,175.167 44.5,188.5C 37.6901,188.514 30.8567,188.848 24,189.5C 20.5226,189.672 17.356,189.006 14.5,187.5C 15.2891,187.217 15.9558,186.717 16.5,186C 24.8267,185.5 33.16,185.334 41.5,185.5C 41.5,176.167 41.5,166.833 41.5,157.5C 41.5,150.5 41.5,143.5 41.5,136.5 Z"/></g>
<g><path style="opacity:0.217" fill="#6845a0" d="M 573.5,98.5 C 573.169,127.005 573.502,155.338 574.5,183.5C 574.822,185.722 574.155,187.556 572.5,189C 563.119,189.806 553.785,189.64 544.5,188.5C 543.5,170.512 543.167,152.512 543.5,134.5C 544.496,134.586 545.329,134.252 546,133.5C 546.499,138.489 546.666,143.489 546.5,148.5C 546.187,160.884 546.52,173.217 547.5,185.5C 555.145,186.665 562.812,186.831 570.5,186C 571.489,172.913 571.823,159.746 571.5,146.5C 571.5,136.833 571.5,127.167 571.5,117.5C 571.5,111.167 571.5,104.833 571.5,98.5C 571.369,97.7611 571.536,97.0944 572,96.5C 572.278,97.4158 572.778,98.0825 573.5,98.5 Z"/></g>
<g><path style="opacity:0.999" fill="#7346be" d="M 571.5,146.5 C 571.823,159.746 571.489,172.913 570.5,186C 562.812,186.831 555.145,186.665 547.5,185.5C 546.52,173.217 546.187,160.884 546.5,148.5C 547.302,149.952 547.802,151.618 548,153.5C 548.29,151.956 548.956,150.623 550,149.5C 551.629,150.565 552.796,151.899 553.5,153.5C 554.354,152.052 555.354,150.719 556.5,149.5C 555.391,147.786 556.058,147.119 558.5,147.5C 558.5,148.5 558.5,149.5 558.5,150.5C 562.434,150.021 566.101,150.688 569.5,152.5C 570.169,150.369 570.835,148.369 571.5,146.5 Z"/></g>
<g><path style="opacity:0.19" fill="#5e439b" d="M 595.5,168.5 C 598.585,176.086 603.918,181.586 611.5,185C 639.833,185.667 668.167,185.667 696.5,185C 699.266,183.533 701.766,181.7 704,179.5C 703.667,177.833 703.333,176.167 703,174.5C 703.333,174.833 703.667,175.167 704,175.5C 705.622,174.901 707.122,174.234 708.5,173.5C 709.434,174.568 709.768,175.901 709.5,177.5C 706.95,182.543 702.95,186.043 697.5,188C 692.524,188.747 687.524,189.247 682.5,189.5C 660.892,189.543 639.225,189.376 617.5,189C 605.392,188.073 597.059,181.906 592.5,170.5C 593.778,170.218 594.778,169.551 595.5,168.5 Z"/></g>
<g><path style="opacity:0.977" fill="#f9f9f9" d="M 132.5,293.5 C 134.213,292.365 134.88,290.698 134.5,288.5C 104.833,288.5 75.1667,288.5 45.5,288.5C 45.1849,302.579 45.5182,316.579 46.5,330.5C 41.0403,331.829 35.207,332.496 29,332.5C 22.9219,332.49 16.9219,332.157 11,331.5C 10.3333,295.833 10.3333,260.167 11,224.5C 11.5053,221.135 12.672,218.135 14.5,215.5C 15.9063,215.027 16.573,214.027 16.5,212.5C 20.974,206.421 26.974,202.588 34.5,201C 71.5,200.333 108.5,200.333 145.5,201C 156.769,203.938 164.603,210.772 169,221.5C 169.667,258.167 169.667,294.833 169,331.5C 157,332.833 145,332.833 133,331.5C 132.5,318.838 132.333,306.171 132.5,293.5 Z M 132.5,231.5 C 132.5,240.833 132.5,250.167 132.5,259.5C 103.995,259.831 75.6618,259.498 47.5,258.5C 47.5,249.167 47.5,239.833 47.5,230.5C 75.9072,230.175 104.241,230.509 132.5,231.5 Z"/></g>
<g><path style="opacity:0.958" fill="#f5f5f5" d="M 191.5,200.5 C 203.833,200.5 216.167,200.5 228.5,200.5C 228.5,234.167 228.5,267.833 228.5,301.5C 269.072,301.17 309.572,301.503 350,302.5C 350.818,312.411 350.651,322.244 349.5,332C 297.167,332.667 244.833,332.667 192.5,332C 191.503,288.239 191.17,244.406 191.5,200.5 Z"/></g>
<g><path style="opacity:0.933" fill="#f5f5f5" d="M 360.5,200.5 C 372.747,200.178 384.914,200.512 397,201.5C 397.828,244.875 397.661,288.208 396.5,331.5C 384.848,332.666 373.181,332.833 361.5,332C 361,331.5 360.5,331 360,330.5C 359.173,287.096 359.339,243.762 360.5,200.5 Z"/></g>
<g><path style="opacity:0.086" fill="#787878" d="M 16.5,212.5 C 16.573,214.027 15.9063,215.027 14.5,215.5C 14.427,213.973 15.0937,212.973 16.5,212.5 Z"/></g>
<g><path style="opacity:0.11" fill="#a7a7a7" d="M 132.5,231.5 C 104.241,230.509 75.9072,230.175 47.5,230.5C 47.5,239.833 47.5,249.167 47.5,258.5C 46.5062,249.014 46.1729,239.348 46.5,229.5C 75.5195,228.841 104.186,229.508 132.5,231.5 Z"/></g>
<g><path style="opacity:0.711" fill="#cfcfcf" d="M 132.5,293.5 C 132.586,292.504 132.252,291.671 131.5,291C 103.502,290.5 75.502,290.333 47.5,290.5C 47.8289,304.01 47.4956,317.344 46.5,330.5C 45.5182,316.579 45.1849,302.579 45.5,288.5C 75.1667,288.5 104.833,288.5 134.5,288.5C 134.88,290.698 134.213,292.365 132.5,293.5 Z"/></g>
</svg>
