<?xml version="1.0" encoding="UTF-8"?>
<!DOCTYPE svg PUBLIC "-//W3C//DTD SVG 1.1//EN" "http://www.w3.org/Graphics/SVG/1.1/DTD/svg11.dtd">
<svg xmlns="http://www.w3.org/2000/svg" version="1.1" width="111px" height="48px" style="shape-rendering:geometricPrecision; text-rendering:geometricPrecision; image-rendering:optimizeQuality; fill-rule:evenodd; clip-rule:evenodd" xmlns:xlink="http://www.w3.org/1999/xlink">
<g><path style="opacity:0.991" fill="#aa2599" d="M 108.5,4.5 C 108.5,5.5 108.5,6.5 108.5,7.5C 101.745,8.12295 95.412,7.45628 89.5,5.5C 89.5106,3.98261 90.1772,2.81595 91.5,2C 96.5,1.33333 101.5,1.33333 106.5,2C 107.756,2.41691 108.423,3.25025 108.5,4.5 Z"/></g>
<g><path style="opacity:0.988" fill="#a6299b" d="M 21.5,9.5 C 19.2188,9.07729 17.5521,9.74395 16.5,11.5C 15.596,10.791 15.2627,9.79105 15.5,8.5C 12.5,8.5 9.5,8.5 6.5,8.5C 5.14185,8.17784 3.47518,8.17784 1.5,8.5C 1.10433,5.95557 1.77099,3.7889 3.5,2C 8.83333,1.33333 14.1667,1.33333 19.5,2C 21.2785,4.13544 21.9452,6.63544 21.5,9.5 Z"/></g>
<g><path style="opacity:0.932" fill="#a42a9a" d="M 43.5,13.5 C 42.5489,12.0813 42.2155,10.4147 42.5,8.5C 40.8333,8.5 39.1667,8.5 37.5,8.5C 34.2869,8.19 31.2869,8.52333 28.5,9.5C 26.7659,8.43795 25.0992,8.43795 23.5,9.5C 23.5,6.83333 23.5,4.16667 23.5,1.5C 29.1764,1.33391 34.8431,1.50058 40.5,2C 43.1539,5.32731 44.1539,9.16064 43.5,13.5 Z"/></g>
<g><path style="opacity:0.984" fill="#a5289b" d="M 87.5,9.5 C 85.8561,9.28649 84.3561,9.61983 83,10.5C 82.7216,9.5842 82.2216,8.91753 81.5,8.5C 77.9878,7.9455 74.9878,8.61216 72.5,10.5C 70.9582,9.69929 69.2915,9.36596 67.5,9.5C 67.5,8.5 67.5,7.5 67.5,6.5C 67.2965,4.60963 67.9632,3.10963 69.5,2C 74.8333,1.33333 80.1667,1.33333 85.5,2C 87.1134,4.22763 87.78,6.72763 87.5,9.5 Z"/></g>
<g><path style="opacity:1" fill="#a5299c" d="M 64.5,6.5 C 64.5,7.5 64.5,8.5 64.5,9.5C 62.8333,9.5 61.1667,9.5 59.5,9.5C 56.5,8.16667 53.5,8.16667 50.5,9.5C 48.7085,9.36596 47.0418,9.69929 45.5,10.5C 45.5,7.5 45.5,4.5 45.5,1.5C 51.1764,1.33391 56.8431,1.50058 62.5,2C 64.0368,3.10963 64.7035,4.60963 64.5,6.5 Z"/></g>
<g><path style="opacity:0.985" fill="#8f36aa" d="M 64.5,6.5 C 64.6371,10.0499 64.9704,13.7166 65.5,17.5C 63.9902,18.7279 62.4902,18.7279 61,17.5C 60.7216,18.4158 60.2216,19.0825 59.5,19.5C 58.4855,18.2353 56.9855,17.5687 55,17.5C 53.2933,17.5085 51.7933,17.8418 50.5,18.5C 48.8333,18.5 47.1667,18.5 45.5,18.5C 45.5,15.8333 45.5,13.1667 45.5,10.5C 47.0418,9.69929 48.7085,9.36596 50.5,9.5C 53.5,10.8333 56.5,10.8333 59.5,9.5C 61.1667,9.5 62.8333,9.5 64.5,9.5C 64.5,8.5 64.5,7.5 64.5,6.5 Z"/></g>
<g><path style="opacity:0.985" fill="#9234a8" d="M 108.5,4.5 C 109.461,6.26465 109.795,8.26465 109.5,10.5C 108.448,10.3505 107.448,10.5172 106.5,11C 107.381,11.7083 108.047,12.5416 108.5,13.5C 107.637,14.9403 107.637,16.2736 108.5,17.5C 107.833,17.8333 107.167,18.1667 106.5,18.5C 101.309,16.7849 95.9758,15.7849 90.5,15.5C 89.0277,13.8825 88.361,11.8825 88.5,9.5C 88.5108,7.95492 88.8442,6.62159 89.5,5.5C 95.412,7.45628 101.745,8.12295 108.5,7.5C 108.5,6.5 108.5,5.5 108.5,4.5 Z M 94.5,8.5 C 98.0479,8.09491 101.381,8.59491 104.5,10C 102.833,10.1667 101.167,10.3333 99.5,10.5C 97.3603,10.4439 95.6936,9.77725 94.5,8.5 Z"/></g>
<g><path style="opacity:0.988" fill="#9037a8" d="M 67.5,6.5 C 67.5,7.5 67.5,8.5 67.5,9.5C 69.2915,9.36596 70.9582,9.69929 72.5,10.5C 74.9878,12.3878 77.9878,13.0545 81.5,12.5C 81.5,11.1667 81.5,9.83333 81.5,8.5C 82.2216,8.91753 82.7216,9.5842 83,10.5C 84.3561,9.61983 85.8561,9.28649 87.5,9.5C 87.5,11.8333 87.5,14.1667 87.5,16.5C 80.9221,15.5399 74.2554,15.2066 67.5,15.5C 67.7678,17.099 67.4345,18.4324 66.5,19.5C 66.1818,14.9677 66.5151,10.6344 67.5,6.5 Z M 81.5,8.5 C 81.5,9.83333 81.5,11.1667 81.5,12.5C 77.9878,13.0545 74.9878,12.3878 72.5,10.5C 74.9878,8.61216 77.9878,7.9455 81.5,8.5 Z"/></g>
<g><path style="opacity:0.908" fill="#843eb1" d="M 6.5,8.5 C 6.5,9.83333 6.5,11.1667 6.5,12.5C 10.0419,12.8128 13.3752,12.4794 16.5,11.5C 17.5521,9.74395 19.2188,9.07729 21.5,9.5C 21.5,15.1667 21.5,20.8333 21.5,26.5C 19.8333,26.5 18.1667,26.5 16.5,26.5C 16.1667,26.5 15.8333,26.5 15.5,26.5C 15.5,24.1667 15.5,21.8333 15.5,19.5C 12.5,19.5 9.5,19.5 6.5,19.5C 6.5,21.8333 6.5,24.1667 6.5,26.5C 4.83333,26.5 3.16667,26.5 1.5,26.5C 1.5,20.5 1.5,14.5 1.5,8.5C 3.47518,8.17784 5.14185,8.17784 6.5,8.5 Z M 15.5,26.5 C 12.5,26.5 9.5,26.5 6.5,26.5C 6.5,24.1667 6.5,21.8333 6.5,19.5C 9.5,19.5 12.5,19.5 15.5,19.5C 15.5,21.8333 15.5,24.1667 15.5,26.5 Z"/></g>
<g><path style="opacity:0.862" fill="#8c38ac" d="M 28.5,9.5 C 29.7933,10.1582 31.2933,10.4915 33,10.5C 34.9855,10.4313 36.4855,9.76468 37.5,8.5C 39.1667,8.5 40.8333,8.5 42.5,8.5C 42.2155,10.4147 42.5489,12.0813 43.5,13.5C 43.5,14.8333 43.5,16.1667 43.5,17.5C 41.8333,17.5 40.1667,17.5 38.5,17.5C 35.1667,17.5 31.8333,17.5 28.5,17.5C 26.8333,18.8333 25.1667,18.8333 23.5,17.5C 23.5,14.8333 23.5,12.1667 23.5,9.5C 25.0992,8.43795 26.7659,8.43795 28.5,9.5 Z M 37.5,8.5 C 36.4855,9.76468 34.9855,10.4313 33,10.5C 31.2933,10.4915 29.7933,10.1582 28.5,9.5C 31.2869,8.52333 34.2869,8.19 37.5,8.5 Z"/></g>
<g><path style="opacity:0.907" fill="#7d42b5" d="M 87.5,16.5 C 87.5,19.8333 87.5,23.1667 87.5,26.5C 85.5,26.5 83.5,26.5 81.5,26.5C 81.5,24.1667 81.5,21.8333 81.5,19.5C 78.5,19.5 75.5,19.5 72.5,19.5C 72.5,21.8333 72.5,24.1667 72.5,26.5C 70.5,26.5 68.5,26.5 66.5,26.5C 66.5,24.1667 66.5,21.8333 66.5,19.5C 67.4345,18.4324 67.7678,17.099 67.5,15.5C 74.2554,15.2066 80.9221,15.5399 87.5,16.5 Z"/></g>
<g><path style="opacity:0.969" fill="#7546bb" d="M 23.5,17.5 C 25.1667,18.8333 26.8333,18.8333 28.5,17.5C 29.5145,18.7647 31.0145,19.4313 33,19.5C 34.5,19.3333 36,19.1667 37.5,19C 38.056,18.6174 38.3893,18.1174 38.5,17.5C 40.1667,17.5 41.8333,17.5 43.5,17.5C 43.9804,20.6852 43.3137,23.5185 41.5,26C 35.5092,26.4995 29.5092,26.6662 23.5,26.5C 23.5,23.5 23.5,20.5 23.5,17.5 Z M 28.5,17.5 C 31.8333,17.5 35.1667,17.5 38.5,17.5C 38.3893,18.1174 38.056,18.6174 37.5,19C 36,19.1667 34.5,19.3333 33,19.5C 31.0145,19.4313 29.5145,18.7647 28.5,17.5 Z"/></g>
<g><path style="opacity:1" fill="#7546bb" d="M 65.5,17.5 C 65.9804,20.6852 65.3137,23.5185 63.5,26C 57.5092,26.4995 51.5092,26.6662 45.5,26.5C 45.5,23.8333 45.5,21.1667 45.5,18.5C 47.1667,18.5 48.8333,18.5 50.5,18.5C 53.2869,19.4767 56.2869,19.81 59.5,19.5C 60.2216,19.0825 60.7216,18.4158 61,17.5C 62.4902,18.7279 63.9902,18.7279 65.5,17.5 Z"/></g>
<g><path style="opacity:0.994" fill="#7646b9" d="M 108.5,13.5 C 109.997,17.7122 109.664,21.8789 107.5,26C 102.167,26.6667 96.8333,26.6667 91.5,26C 87.7263,22.7312 87.7263,19.7312 91.5,17C 90.944,16.6174 90.6107,16.1174 90.5,15.5C 95.9758,15.7849 101.309,16.7849 106.5,18.5C 107.167,18.1667 107.833,17.8333 108.5,17.5C 107.637,16.2736 107.637,14.9403 108.5,13.5 Z M 92.5,18.5 C 96.0187,17.1923 99.6853,17.1923 103.5,18.5C 99.8253,19.6834 96.1586,19.6834 92.5,18.5 Z"/></g>
<g><path style="opacity:0.794" fill="#f8f8f8" d="M 6.5,26.5 C 9.5,26.5 12.5,26.5 15.5,26.5C 15.8333,26.5 16.1667,26.5 16.5,26.5C 18.631,27.3138 20.9644,27.8138 23.5,28C 24.428,28.3879 25.0946,29.0546 25.5,30C 26.4299,35.4504 26.7633,40.9504 26.5,46.5C 24.1667,46.5 21.8333,46.5 19.5,46.5C 19.6621,44.4727 19.4955,42.4727 19,40.5C 15.3333,41.8333 11.6667,41.8333 8,40.5C 7.50454,42.4727 7.33788,44.4727 7.5,46.5C 5.16667,46.5 2.83333,46.5 0.5,46.5C 0.333909,40.8236 0.500575,35.1569 1,29.5C 2.71891,28.1312 4.55225,27.1312 6.5,26.5 Z M 7.5,32.5 C 11.5,32.5 15.5,32.5 19.5,32.5C 19.5,33.5 19.5,34.5 19.5,35.5C 15.5,35.5 11.5,35.5 7.5,35.5C 7.5,34.5 7.5,33.5 7.5,32.5 Z"/></g>
<g><path style="opacity:0.791" fill="#fefefe" d="M 28.5,27.5 C 30.5,27.5 32.5,27.5 34.5,27.5C 34.5,32.1667 34.5,36.8333 34.5,41.5C 40.8333,41.5 47.1667,41.5 53.5,41.5C 53.5,36.8333 53.5,32.1667 53.5,27.5C 55.8333,27.5 58.1667,27.5 60.5,27.5C 60.5,33.8333 60.5,40.1667 60.5,46.5C 49.8333,46.5 39.1667,46.5 28.5,46.5C 28.5,40.1667 28.5,33.8333 28.5,27.5 Z"/></g>
</svg>
